<?xml version="1.0" encoding="UTF-8"?>
<svg xmlns="http://www.w3.org/2000/svg" id="Layer_1" data-name="Layer 1" viewBox="0 0 512 512"
    width="512" height="512">
    <style type="text/css">
        path{fill:url(#MyGradient)}
    </style>
    <defs>
        <linearGradient id="MyGradient" x1="0%" y1="0%" x2="0%" y2="100%">
            <stop offset="5%" stop-color="#DC8998" />
            <stop offset="95%" stop-color="#718EC4" />
        </linearGradient>
    </defs>
    <path
        d="M497.952,202.853l-39.877-4.9a209.091,209.091,0,0,0-18.147-43.785L464.667,122.5a16.019,16.019,0,0,0-1.295-21.162L410.667,48.629a16.019,16.019,0,0,0-21.163-1.3L357.833,72.072a209.076,209.076,0,0,0-43.785-18.147l-4.9-39.876A16.018,16.018,0,0,0,293.268,0H218.732a16.015,16.015,0,0,0-15.879,14.049l-4.9,39.876a209.12,209.12,0,0,0-43.785,18.147L122.5,47.333a16.018,16.018,0,0,0-21.163,1.3l-52.7,52.705a16.019,16.019,0,0,0-1.3,21.162l24.739,31.671a209.1,209.1,0,0,0-18.146,43.785l-39.877,4.9A16.017,16.017,0,0,0,0,218.732v74.536a16.015,16.015,0,0,0,14.048,15.879l39.877,4.9a209.13,209.13,0,0,0,18.147,43.785L47.333,389.505a16.019,16.019,0,0,0,1.3,21.163l52.705,52.7a16.017,16.017,0,0,0,21.163,1.3l31.671-24.739a209.089,209.089,0,0,0,43.785,18.146l4.9,39.876A16.015,16.015,0,0,0,218.732,512h74.536a16.018,16.018,0,0,0,15.88-14.049l4.9-39.876a209.085,209.085,0,0,0,43.785-18.147L389.5,464.667a16.018,16.018,0,0,0,21.163-1.3l52.705-52.7a16.017,16.017,0,0,0,1.295-21.162l-24.739-31.672a209.109,209.109,0,0,0,18.147-43.785l39.876-4.9A16.015,16.015,0,0,0,512,293.268V218.732A16.017,16.017,0,0,0,497.952,202.853ZM500,293.268a3.955,3.955,0,0,1-3.512,3.969l-43.86,5.39a6,6,0,0,0-5.066,4.414,197.091,197.091,0,0,1-20.022,48.31,6,6,0,0,0,.46,6.706l27.21,34.836a3.953,3.953,0,0,1-.324,5.289l-52.7,52.7a3.955,3.955,0,0,1-5.291.323L362.057,428a6,6,0,0,0-6.705-.461,197.118,197.118,0,0,1-48.31,20.023,6,6,0,0,0-4.415,5.067l-5.389,43.859a3.956,3.956,0,0,1-3.97,3.512H218.732a3.955,3.955,0,0,1-3.969-3.512l-5.39-43.859a6,6,0,0,0-4.414-5.067,197.124,197.124,0,0,1-48.31-20.022,6,6,0,0,0-6.706.46l-34.835,27.21a3.955,3.955,0,0,1-5.29-.323l-52.7-52.7a3.957,3.957,0,0,1-.324-5.291L84,362.057a6,6,0,0,0,.46-6.705,197.113,197.113,0,0,1-20.021-48.311,6,6,0,0,0-5.067-4.414l-43.861-5.39A3.955,3.955,0,0,1,12,293.268V218.732a3.956,3.956,0,0,1,3.512-3.969l43.86-5.39a6,6,0,0,0,5.066-4.413A197.141,197.141,0,0,1,84.46,156.649a6,6,0,0,0-.46-6.706L56.79,115.109a3.957,3.957,0,0,1,.324-5.291l52.7-52.7a3.956,3.956,0,0,1,5.291-.323L149.943,84a6,6,0,0,0,6.7.461,197.176,197.176,0,0,1,48.31-20.023,6,6,0,0,0,4.415-5.067l5.39-43.86A3.955,3.955,0,0,1,218.732,12h74.536a3.956,3.956,0,0,1,3.97,3.512l5.389,43.859a6,6,0,0,0,4.415,5.067,197.144,197.144,0,0,1,48.31,20.023A6,6,0,0,0,362.057,84l34.835-27.21a3.954,3.954,0,0,1,5.29.323l52.7,52.705a3.957,3.957,0,0,1,.324,5.291L428,149.943a6,6,0,0,0-.46,6.7,197.133,197.133,0,0,1,20.022,48.311,6,6,0,0,0,5.066,4.414l43.861,5.39A3.956,3.956,0,0,1,500,218.732v74.536ZM194.48,323.957c-8.118,5.443-10.579,14.667-5.984,22.429A6,6,0,1,1,178.17,352.5c-7.87-13.3-3.821-29.49,9.627-38.509,12.813-8.593,30.855-7.982,42.9,1.449a6,6,0,1,1-7.4,9.448A25.141,25.141,0,0,0,194.48,323.957Zm61.212,51.961a6,6,0,0,1-1.025,8.423,37.43,37.43,0,0,1-42.9,1.449c-13.449-9.019-17.5-25.213-9.627-38.508a6,6,0,0,1,10.326,6.114c-4.595,7.761-2.134,16.984,5.984,22.427a25.139,25.139,0,0,0,28.818-.929A6,6,0,0,1,255.692,375.918ZM196.2,184.98c-7.871-13.295-3.822-29.49,9.627-38.508,12.813-8.593,30.855-7.983,42.9,1.449a6,6,0,1,1-7.4,9.447,25.142,25.142,0,0,0-28.818-.93c-8.118,5.444-10.579,14.667-5.984,22.429A6,6,0,1,1,196.2,184.98ZM180.23,250.586a27.586,27.586,0,0,1-2.556-32.124A6,6,0,1,1,188,224.575c-4.595,7.762-2.134,16.985,5.984,22.428a25.139,25.139,0,0,0,28.818-.93,6,6,0,0,1,7.4,9.448,36.513,36.513,0,0,1-22.466,7.505,37.15,37.15,0,0,1-17.932-4.539c-.218.551-.42,1.1-.6,1.663a28.416,28.416,0,0,0,5,26.637,6,6,0,0,1-9.456,7.389c-8.641-11.06-11.174-24.82-6.949-37.752A41.536,41.536,0,0,1,180.23,250.586Zm193.7-21.326A26.781,26.781,0,0,0,347.881,250h-73.37V206.887h38.318c4.908,0,8.473-3,10.6-8.926l13.468-37.572a26.776,26.776,0,1,0-11.293-4.058l-13.471,37.58c-.152.425-.283.742-.39.976H274.511V111.6a6,6,0,0,0-.977-3.281,53.263,53.263,0,0,0-18.887-17.427,56.315,56.315,0,0,0-53.888,0,52.875,52.875,0,0,0-22.806,24.634,45.707,45.707,0,0,0-9.04,6.472,43.39,43.39,0,0,0-14.13,30.83c-14.951,2.506-27.1,12.838-31.414,27a36.944,36.944,0,0,0,8.17,35.911,53.907,53.907,0,0,0-12.772,65.138,38.34,38.34,0,0,0-6.18,32.272A39.272,39.272,0,0,0,126.9,334.283a35.116,35.116,0,0,0,3.868,43.792c11.348,11.949,29.373,14.874,43.93,8.269a52.079,52.079,0,0,0,26.066,34.767,56.315,56.315,0,0,0,53.888,0,53.263,53.263,0,0,0,18.887-17.427,6,6,0,0,0,.977-3.281v-83.29H311.74c.107.234.238.55.39.975L325.6,355.67a26.828,26.828,0,1,0,11.293-4.058l-13.468-37.573c-2.123-5.923-5.688-8.926-10.6-8.926H274.511V262h73.37a26.738,26.738,0,1,0,26.053-32.74ZM340.036,119.1a14.741,14.741,0,1,1-14.74,14.74A14.757,14.757,0,0,1,340.036,119.1ZM262.511,398.548A41.411,41.411,0,0,1,248.859,410.6a44.236,44.236,0,0,1-42.313,0c-12.915-7.112-20.924-20.305-20.9-34.434a6,6,0,0,0-9.9-4.571,26.708,26.708,0,0,1-36.283-1.783,22.857,22.857,0,0,1-2.017-29.691A42.034,42.034,0,0,0,147.88,342.6a6.2,6.2,0,0,0,.635.033,6,6,0,0,0,.62-11.967c-12-1.262-22.026-9.531-24.946-20.578a25.765,25.765,0,0,1,1.885-18.231,57.176,57.176,0,0,0,7.684,7.458,6,6,0,0,0,7.513-9.358,43.166,43.166,0,0,1-15.85-27.079c-2.489-16.227,4.712-32.25,18.792-41.815a6,6,0,0,0,.206-9.781c-8.96-6.653-12.717-17.626-9.571-27.953,3.181-10.444,12.65-17.884,24.124-18.953a29.465,29.465,0,0,1,15.049,2.559,6,6,0,0,0,5.03-10.9,41.19,41.19,0,0,0-12.247-3.464,31.438,31.438,0,0,1,10.238-21.75,35.579,35.579,0,0,1,39.125-5.688,6,6,0,0,0,5.164-10.832,47.724,47.724,0,0,0-25.611-4.323,41.707,41.707,0,0,1,10.826-8.578,44.238,44.238,0,0,1,42.314,0,41.417,41.417,0,0,1,13.651,12.052Zm92.266-20.387a14.741,14.741,0,1,1-14.741-14.74A14.757,14.757,0,0,1,354.777,378.161ZM373.934,270.74A14.74,14.74,0,1,1,388.674,256,14.756,14.756,0,0,1,373.934,270.74Z" />
</svg>