<svg height="480pt" viewBox="0 0 480 480.20529" width="480pt" xmlns="http://www.w3.org/2000/svg">
    <style type="text/css">
        g#Gradient{fill:url(#MyGradient)}
    </style>
    <defs>
        <linearGradient id="MyGradient" x1="0%" y1="0%" x2="0%" y2="100%">
            <stop offset="5%" stop-color="#DC8998" />
            <stop offset="95%" stop-color="#718EC4" />
        </linearGradient>
    </defs>
    <g id="Gradient">
        <path
            d="m75.804688 140.078125-13.601563-8.351563c-3.3125 5.40625-6.398437 11.007813-9.183594 16.628907l14.34375 7.089843c2.519531-5.199218 5.375-10.367187 8.441407-15.367187zm0 0" />
        <path
            d="m45.644531 164.996094c-14.472656 37.066406-17.902343 77.53125-9.882812 116.503906l15.671875-3.199219c-7.398438-35.960937-4.234375-73.292969 9.113281-107.496093zm0 0" />
        <path
            d="m407.210938 16.042969c-3.027344-1.355469-6.582032-.703125-8.929688 1.640625l-23.613281 23.617187c-86.765625-58.6875-201.535157-54.484375-283.769531 10.398438l9.953124 12.53125c78.59375-62 188.75-64.460938 270.03125-6.027344 3.175782 2.308594 7.558594 1.972656 10.34375-.796875l13.488282-13.503906-4.910156 83.453125-83.457032 4.90625 11.199219-11.199219c1.757813-1.757812 2.601563-4.234375 2.277344-6.699219-.320313-2.464843-1.773438-4.640625-3.925781-5.886719-50.140626-28.828124-112.265626-26.875-160.496094 5.046876l8.898437 13.296874c40.007813-26.480468 90.96875-30.066406 134.292969-9.449218l-18.4375 18.402344c-2.289062 2.289062-2.972656 5.726562-1.734375 8.714843 1.238281 2.992188 4.152344 4.941407 7.390625 4.941407.15625.007812.3125.007812.46875 0l111.5625-6.5625c4.046875-.234376 7.277344-3.460938 7.519531-7.511719l6.558594-111.566407c.183594-3.308593-1.6875-6.386718-4.710937-7.746093zm0 0" />
        <path
            d="m380.570312 434.398438-9.390624-12.953126c-78.175782 56.851563-184.0625 56.917969-262.3125.167969-3.175782-2.308593-7.558594-1.96875-10.34375.800781l-13.488282 13.488282 4.902344-83.457032 83.464844-4.90625-11.199219 11.203126c-1.757813 1.757812-2.597656 4.230468-2.273437 6.691406.324218 2.464844 1.773437 4.636718 3.921874 5.882812 50.007813 28.734375 111.929688 26.878906 160.128907-4.800781l-8.90625-13.277344c-39.964844 26.261719-90.746094 29.746094-133.925781 9.191407l18.398437-18.402344c2.316406-2.351563 2.949219-5.886719 1.59375-8.894532-1.359375-3.011718-4.425781-4.878906-7.722656-4.703124l-111.558594 6.558593c-4.046875.238281-7.28125 3.464844-7.519531 7.511719l-6.5625 111.570312c-.1875 3.3125 1.6875 6.398438 4.714844 7.757813 3.027343 1.359375 6.578124.707031 8.925781-1.640625l23.617187-23.613281c83.472656 56.980469 193.75 55.335937 275.488282-4.105469zm0 0" />
        <path
            d="m49.539062 386.164062 12.671876-9.765624c-59.980469-78.59375-61.621094-187.132813-4.046876-267.503907 2.308594-3.179687 1.96875-7.5625-.800781-10.34375l-13.488281-13.488281 83.457031 4.910156 4.902344 83.457032-11.199219-11.199219c-1.757812-1.761719-4.234375-2.601563-6.699218-2.28125-2.464844.324219-4.640626 1.777343-5.886719 3.925781-28.824219 50.132812-26.878907 112.242188 5.027343 160.472656l13.292969-8.894531c-26.472656-40.007813-30.050781-90.960937-9.421875-134.273437l18.398438 18.402343c2.351562 2.34375 5.90625 2.996094 8.933594 1.636719 3.027343-1.359375 4.902343-4.453125 4.707031-7.765625l-6.558594-111.558594c-.238281-4.050781-3.464844-7.28125-7.511719-7.523437l-111.570312-6.558594c-3.308594-.175781-6.386719 1.695312-7.757813 4.710938-1.375 3.050781-.707031 6.628906 1.671875 8.976562l23.613282 23.617188c-57.796876 85.761718-54.472657 198.828124 8.265624 281.046874zm0 0" />
        <path
            d="m347.539062 306.371094 11.199219 11.203125c1.757813 1.757812 4.234375 2.597656 6.699219 2.277343 2.464844-.324218 4.640625-1.773437 5.886719-3.925781 27.171875-47.011719 27.253906-104.933593.222656-152.023437l-13.855469 8c22.335938 38.886718 24.101563 86.277344 4.71875 126.71875l-18.398437-18.441406c-2.355469-2.316407-5.886719-2.945313-8.898438-1.589844-3.011719 1.355468-4.878906 4.421875-4.703125 7.71875l6.5625 111.558594c.234375 4.050781 3.460938 7.28125 7.511719 7.523437l111.566406 6.558594h.472657c3.234374-.003907 6.148437-1.953125 7.382812-4.941407 1.234375-2.988281.550781-6.429687-1.734375-8.714843l-23.617187-23.617188c57.796874-85.761719 54.472656-198.835937-8.265626-281.054687l-12.671874 9.769531c59.980468 78.589844 61.625 187.132813 4.050781 267.503906-2.308594 3.175781-1.96875 7.558594.800781 10.34375l13.40625 13.503907-83.457031-4.914063zm0 0" />
        <path
            d="m239.875 279.902344c22.089844 0 40-17.910156 40-40 0-22.09375-17.910156-40-40-40s-40 17.90625-40 40c.027344 22.078125 17.917969 39.972656 40 40zm0-64c13.253906 0 24 10.742187 24 24 0 13.253906-10.746094 24-24 24s-24-10.746094-24-24c0-13.257813 10.746094-24 24-24zm0 0" />
        <path
            d="m151.875 215.902344c-4.417969 0-8 3.582031-8 8v32c0 4.417968 3.582031 8 8 8h11.726562c1.410157 4.464844 3.207032 8.800781 5.378907 12.949218l-8.304688 8.304688c-3.125 3.125-3.125 8.1875 0 11.3125l22.632813 22.632812c3.121094 3.121094 8.1875 3.121094 11.308594 0l8.304687-8.296874c4.152344 2.167968 8.484375 3.964843 12.953125 5.367187v11.730469c0 4.417968 3.582031 8 8 8h32c4.417969 0 8-3.582032 8-8v-11.730469c4.46875-1.40625 8.800781-3.207031 12.953125-5.375l8.304687 8.304687c3.121094 3.121094 8.1875 3.121094 11.308594 0l22.632813-22.632812c3.125-3.125 3.125-8.1875 0-11.3125l-8.304688-8.304688c2.171875-4.148437 3.96875-8.484374 5.378907-12.949218h11.726562c4.417969 0 8-3.582032 8-8v-32c0-4.417969-3.582031-8-8-8h-11.726562c-1.410157-4.46875-3.210938-8.804688-5.386719-12.953125l8.3125-8.304688c3.125-3.125 3.125-8.1875 0-11.3125l-22.632813-22.632812c-3.121094-3.121094-8.1875-3.121094-11.308594 0l-8.304687 8.296875c-4.152344-2.167969-8.484375-3.960938-12.953125-5.367188v-11.726562c0-4.417969-3.582031-8-8-8h-32c-4.417969 0-8 3.582031-8 8v11.726562c-4.46875 1.40625-8.800781 3.207032-12.953125 5.375l-8.304687-8.304687c-3.121094-3.121094-8.1875-3.121094-11.308594 0l-22.632813 22.632812c-3.125 3.125-3.125 8.1875 0 11.3125l8.296875 8.304688c-2.167968 4.152343-3.964844 8.484375-5.371094 12.953125zm17.839844 16c3.738281.003906 6.976562-2.582032 7.808594-6.226563 1.59375-7.011719 4.375-13.703125 8.214843-19.78125 1.996094-3.164062 1.535157-7.285156-1.113281-9.929687l-6.972656-6.976563 11.3125-11.3125 6.972656 6.976563c2.644531 2.644531 6.765625 3.109375 9.929688 1.113281 6.078124-3.84375 12.769531-6.621094 19.785156-8.214844 3.640625-.832031 6.226562-4.074219 6.222656-7.808593v-9.839844h16v9.839844c-.003906 3.734374 2.582031 6.976562 6.222656 7.808593 7.015625 1.59375 13.703125 4.371094 19.785156 8.214844 3.164063 1.996094 7.285157 1.53125 9.929688-1.113281l6.972656-6.976563 11.3125 11.3125-6.976562 6.976563c-2.640625 2.640625-3.101563 6.757812-1.109375 9.921875 3.839843 6.078125 6.617187 12.769531 8.214843 19.78125.824219 3.644531 4.0625 6.230469 7.800782 6.234375h9.847656v16h-9.847656c-3.738282 0-6.976563 2.585937-7.800782 6.230468-1.597656 7.011719-4.375 13.703126-8.214843 19.785157-1.992188 3.160156-1.53125 7.277343 1.109375 9.917969l6.976562 6.976562-11.3125 11.3125-6.972656-6.976562c-2.644531-2.644532-6.765625-3.105469-9.929688-1.113282-6.082031 3.84375-12.769531 6.621094-19.785156 8.21875-3.640625.828125-6.226562 4.070313-6.222656 7.808594v9.839844h-16v-9.839844c.003906-3.738281-2.582031-6.980469-6.222656-7.808594-7.015625-1.597656-13.707032-4.375-19.785156-8.21875-3.164063-1.992187-7.285157-1.53125-9.929688 1.113282l-6.972656 6.976562-11.3125-11.3125 6.972656-6.976562c2.648438-2.640626 3.109375-6.765626 1.113281-9.925782-3.839843-6.082031-6.621093-12.773437-8.214843-19.785156-.832032-3.644531-4.070313-6.226562-7.808594-6.222656h-9.839844v-16zm0 0" />
    </g>
</svg>