<svg clip-rule="evenodd" fill-rule="evenodd" height="512" image-rendering="optimizeQuality"
    shape-rendering="geometricPrecision" text-rendering="geometricPrecision" viewBox="0 0 1707 1707"
    width="512" xmlns="http://www.w3.org/2000/svg">
    <g id="Layer_x0020_1">
        <style type="text/css">
            path{fill:url(#MyGradient)}
        </style>
        <defs>
            <linearGradient id="MyGradient" x1="0%" y1="0%" x2="0%" y2="100%">
                <stop offset="5%" stop-color="#DC8998" />
                <stop offset="95%" stop-color="#718EC4" />
            </linearGradient>
        </defs>
        <path
            d="m853 1707c-82 0-164-45-170-131h-29c-35 0-64-29-64-64v-220c-27-250-99-346-163-431-59-78-115-151-115-320 0-298 243-541 541-541 299 0 542 243 542 541 0 169-56 242-115 320-64 85-137 181-163 431v220c0 35-29 64-64 64h-30c-5 86-88 131-170 131zm83-780h-165c-13 0-24-10-26-23l-10-93c-29-11-56-27-81-47l-85 38c-12 5-26 0-33-11l-82-143c-7-11-4-26 7-34l74-55c-4-30-4-62 0-93l-74-55c-11-8-14-23-7-34l82-143c7-11 21-16 33-11l85 38c25-20 52-36 81-47l10-92c2-13 13-23 26-23h165c13 0 24 10 26 23l10 92c29 11 56 27 81 47l85-38c12-5 26 0 33 11l82 143c7 11 4 26-7 34l-75 55c5 31 5 62 0 93l75 55c11 8 14 23 7 34l-82 143c-7 11-21 16-33 11l-85-38c-25 20-52 36-81 47l-10 93c-2 13-13 23-26 23zm-142-52h119l9-85c4-32 42-16 109-75 8-7 19-8 28-4l78 34 60-103c-110-80-74-42-74-129 0-88-36-49 74-130l-60-103-78 35c-29 12-35-29-120-58-9-3-16-11-17-21l-9-86h-119l-9 86c-4 31-43 15-110 74-7 7-18 9-27 5l-79-35-59 103c110 81 74 42 74 130 0 87 36 49-74 129l59 103 79-34c29-13 35 29 119 57 10 3 17 12 18 22zm222-224h-325c-34 0-34-52 0-52h17v-60c0-34 52-34 52 0v60h31v-156c0-34 52-34 52 0v156h31v-128c0-34 52-34 52 0v128h31v-212c0-34 51-34 51 0v212c49 0 38 52 8 52zm-298-199c-23 0-35-28-19-44l100-99c10-10 26-10 36 0l48 48 56-56c24-24 60 12 36 37-104 104-80 104-158 26l-81 81c-5 5-12 7-18 7zm-79 813h429c57-471 275-404 275-724 0-270-220-489-490-489s-489 219-489 489c0 320 218 253 275 724zm426 51h-423v78h423zm-365 208c10-4 264-1 298-1 3 0 6 0 9 1h46c6 0 12-5 12-12v-67h-423c0 92-12 79 58 79zm271 52h-236c11 105 226 105 236 0z"
            fill="rgb(0,0,0)" />
    </g>
</svg>