<svg id="Layer_1" height="512" viewBox="7.5 7.5 50 50" width="512"
    xmlns="http://www.w3.org/2000/svg">
    <style type="text/css">
        path{fill:url(#MyGradient)}
    </style>
    <defs>
        <linearGradient id="MyGradient" x1="0%" y1="0%" x2="0%" y2="100%">
            <stop offset="5%" stop-color="#DC8998" />
            <stop offset="95%" stop-color="#718EC4" />
        </linearGradient>
    </defs>
    <path
        d="m19.113 26.51 3.757-3.663-5.193-.754-2.322-4.706-2.322 4.706-5.194.754 3.759 3.663-.888 5.172 4.645-2.442 4.645 2.443zm-3.758 1.601-3.317 1.744.634-3.693-2.684-2.616 3.708-.539 1.658-3.36 1.658 3.36 3.709.539-2.683 2.616.633 3.693z" />
    <path
        d="m36.258 26.511 3.758-3.664-5.193-.754-2.323-4.706-2.322 4.706-5.194.754 3.758 3.663-.888 5.172 4.646-2.442 4.645 2.442zm-3.758 1.6-3.317 1.744.634-3.693-2.683-2.616 3.708-.539 1.658-3.36 1.659 3.36 3.709.539-2.684 2.616.633 3.693z" />
    <path
        d="m57.16 22.847-5.193-.754-2.32-4.706-2.324 4.706-5.194.754 3.761 3.664-.89 5.172 4.646-2.442 4.643 2.442-.887-5.172zm-7.514 5.264-3.318 1.744.635-3.693-2.685-2.616 3.708-.539 1.66-3.36 1.656 3.36 3.709.539-2.684 2.616.633 3.693z" />
    <path
        d="m26.25 37.808-2.322-4.706-2.323 4.706-5.194.753 3.758 3.664-.888 5.173 4.646-2.443 4.644 2.443-.887-5.173 3.759-3.664zm.994 7.761-3.316-1.746-3.318 1.746.634-3.694-2.683-2.615 3.708-.538 1.659-3.36 1.658 3.36 3.708.538-2.684 2.615z" />
    <path
        d="m43.395 37.808-2.32-4.706-2.324 4.706-5.193.753 3.758 3.664-.887 5.173 4.646-2.443 4.643 2.444-.887-5.174 3.758-3.664zm.994 7.76-3.314-1.745-3.318 1.746.633-3.694-2.684-2.615 3.709-.538 1.66-3.36 1.656 3.36 3.709.538-2.684 2.615z" />
</svg>