<svg id="Layer_1" height="512" viewBox="0 0 91 91" width="512" xmlns="http://www.w3.org/2000/svg"
    data-name="Layer 1">
    <style type="text/css">
        path{fill:url(#MyGradient)}
    </style>
    <defs>
        <linearGradient id="MyGradient" x1="0%" y1="0%" x2="0%" y2="100%">
            <stop offset="5%" stop-color="#DC8998" />
            <stop offset="95%" stop-color="#718EC4" />
        </linearGradient>
    </defs>
    <path
        d="m63.72 55.87a1.45 1.45 0 0 1 -.94-.34l-10.94-8.86a1.52 1.52 0 0 1 -.55-1.17v-24.5a1.5 1.5 0 1 1 3 0v23.79l10.38 8.41a1.5 1.5 0 0 1 -1 2.67z" />
    <path d="m37.73 61.88h-16.73a1.5 1.5 0 1 1 0-3h16.73a1.5 1.5 0 0 1 0 3z" />
    <path d="m30.94 45.78h-28.15a1.5 1.5 0 1 1 0-3h28.15a1.5 1.5 0 0 1 0 3z" />
    <path d="m20.23 29.5h-10a1.5 1.5 0 0 1 0-3h10a1.5 1.5 0 1 1 0 3z" />
    <path d="m52.79 74a1.5 1.5 0 0 1 -1.5-1.5v-.3a1.5 1.5 0 0 1 3 0v.3a1.5 1.5 0 0 1 -1.5 1.5z" />
    <path d="m80.73 47h-.3a1.5 1.5 0 0 1 0-3h.3a1.5 1.5 0 0 1 0 3z" />
    <path
        d="m17.81 51.86a1.49 1.49 0 0 1 -1.48-1.29 35.59 35.59 0 0 1 -.33-5.07 1.5 1.5 0 0 1 3 0 34 34 0 0 0 .32 4.65 1.5 1.5 0 0 1 -1.32 1.69z" />
    <path
        d="m52.79 82.31a36.51 36.51 0 0 1 -26.49-11.25 1.5 1.5 0 0 1 2.16-2.06 33.49 33.49 0 0 0 24.33 10.31 33.81 33.81 0 1 0 -30.31-48.81 1.5 1.5 0 0 1 -2.69-1.34 36.82 36.82 0 1 1 33 53.15z" />
    <path d="m12.54 61.88h-2.73a1.5 1.5 0 1 1 0-3h2.73a1.5 1.5 0 0 1 0 3z" />
    <path
        d="m19.18 35.68a1.51 1.51 0 0 1 -1.35-2.15l2.08-4.35a1.5 1.5 0 1 1 2.71 1.29l-2.08 4.36a1.51 1.51 0 0 1 -1.36.85z" />
</svg>