<?xml version="1.0" encoding="UTF-8"?><svg xmlns="http://www.w3.org/2000/svg" viewBox="0 0 512 512"><defs><style>.cls-1{fill:#f1dcd9;fill-rule:evenodd;}</style></defs><g id="Layer_1" image-rendering="optimizeQuality" shape-rendering="geometricPrecision" text-rendering="geometricPrecision"><g id="Layer_1-2"><g id="_1639424401936"><path class="cls-1" d="m256,0C114.61,0,0,114.61,0,256s114.61,256,256,256,256-114.61,256-256S397.39,0,256,0Zm65.84,159.81c0,1.97-1.59,3.57-3.57,3.57h-28.43c-6.98,0-12.64,5.65-12.64,12.63v29.77h40.45c2.09,0,3.73,1.79,3.55,3.87l-3.55,41.96c-.15,1.85-1.7,3.27-3.55,3.27h-36.9v139.27c0,1.97-1.59,3.57-3.56,3.57h-50.9c-1.97,0-3.57-1.6-3.57-3.57v-139.27h-25.44c-1.97,0-3.57-1.59-3.57-3.57v-41.96c0-1.97,1.6-3.57,3.57-3.57h25.44v-40.46c0-28.19,22.86-51.05,51.06-51.05h48.04c1.98,0,3.57,1.6,3.57,3.57v41.97Z"/></g></g></g></svg>