<?xml version="1.0" encoding="UTF-8"?><svg id="Layer_1" xmlns="http://www.w3.org/2000/svg" viewBox="0 0 512 512"><defs><style>.cls-1{fill:#f1dcd9;}</style></defs><circle class="cls-1" cx="256" cy="256" r="66"/><path class="cls-1" d="m329.64,109h-147.28c-40.45,0-73.36,32.91-73.36,73.37v147.27c0,40.45,32.91,73.36,73.36,73.36h147.28c40.45,0,73.36-32.91,73.36-73.36v-147.27c0-40.46-32.91-73.37-73.36-73.37Zm-73.64,243c-52.93,0-96-43.06-96-96s43.07-96,96-96,96,43.07,96,96-43.07,96-96,96Zm96.1-178.37c-7.58,0-13.73-6.15-13.73-13.73s6.15-13.73,13.73-13.73,13.73,6.15,13.73,13.73-6.15,13.73-13.73,13.73Z"/><path class="cls-1" d="m256,0C114.61,0,0,114.62,0,256s114.61,256,256,256,256-114.61,256-256S397.39,0,256,0Zm177,329.64c0,57-46.37,103.36-103.36,103.36h-147.28c-56.99,0-103.36-46.36-103.36-103.36v-147.27c0-57,46.37-103.37,103.36-103.37h147.28c56.99,0,103.36,46.37,103.36,103.37v147.27Z"/></svg>