<?xml version="1.0" encoding="UTF-8"?><svg xmlns="http://www.w3.org/2000/svg" viewBox="0 0 512 512"><defs><style>.cls-1{fill:#f1dcd9;fill-rule:evenodd;}</style></defs><g id="Layer_1" image-rendering="optimizeQuality" shape-rendering="geometricPrecision" text-rendering="geometricPrecision"><g id="Layer_1-2"><g id="_1639424913184"><path class="cls-1" d="m256,0C114.61,0,0,114.61,0,256s114.61,256,256,256,256-114.61,256-256S397.39,0,256,0Zm-72.24,388.01h-54.47v-176.01h54.47v176.01Zm-27.49-199.06c-17.8,0-32.22-14.55-32.22-32.48s14.42-32.48,32.22-32.48,32.22,14.54,32.22,32.48-14.43,32.48-32.22,32.48Zm231.67,199.06h-54.22v-92.39c0-25.34-9.63-39.49-29.66-39.49-21.81,0-33.2,14.74-33.2,39.49v92.39h-52.26v-176.01h52.26v23.71s15.71-29.09,53.04-29.09,64.04,22.8,64.04,69.95v111.44Z"/></g></g></g></svg>