<?xml version="1.0" encoding="UTF-8"?><svg id="Layer_1" xmlns="http://www.w3.org/2000/svg" viewBox="0 0 512 512"><defs><style>.cls-1{fill:#f1dcd9;}</style></defs><path class="cls-1" d="m256,117.51c-73.87,0-133.97,55.4-133.97,123.51,0,36.62,17.69,71.23,48.52,94.96l5.86,4.5v34.62l34.17-17.76,5.74,1.65c12.82,3.67,26.17,5.54,39.68,5.54,73.87,0,133.97-55.41,133.97-123.51s-60.1-123.51-133.97-123.51Zm20.3,177.35l-37.93-37.52-59.75,42.9-19.88-19.88,78.11-84.05,37.69,37.72,60.93-42.16,19.85,19.82-79.02,83.17Z"/><path class="cls-1" d="m256,0C114.61,0,0,114.62,0,256s114.61,256,256,256,256-114.61,256-256S397.39,0,256,0Zm0,394.53c-14.25,0-28.37-1.72-42.06-5.13l-67.53,35.1v-69.46c-34.66-29.26-54.38-70.41-54.38-114.02,0-84.65,73.56-153.51,163.97-153.51s163.97,68.86,163.97,153.51-73.56,153.51-163.97,153.51Z"/></svg>