<?xml version="1.0" encoding="UTF-8"?><svg id="Layer_1" xmlns="http://www.w3.org/2000/svg" xmlns:xlink="http://www.w3.org/1999/xlink" viewBox="0 0 461.65 461.66"><defs><style>.cls-1{fill:url(#linear-gradient);}.cls-2{fill:url(#linear-gradient-2);}</style><linearGradient id="linear-gradient" x1="147.47" y1="242.43" x2="305.63" y2="242.43" gradientUnits="userSpaceOnUse"><stop offset=".01" stop-color="#f1dcd9"/><stop offset="1" stop-color="#f1dcd9"/></linearGradient><linearGradient id="linear-gradient-2" x1="0" y1="230.83" x2="461.65" y2="230.83" xlink:href="#linear-gradient"/></defs><g id="Layer_1-2"><path class="cls-1" d="m305.51,162.56c.21.28.15.68-.14.89-.11.34-44.07,39.58-131.87,117.72l-4.52,44.01-21.51-69.61c102.15-63.92,153.39-95.88,153.74-95.88,2.77,0,4.16,1.03,4.16,2.73.06.04.1.09.14.14Z"/><path class="cls-2" d="m230.83,0C103.34,0,0,103.35,0,230.83s103.34,230.83,230.83,230.83,230.82-103.35,230.82-230.83S358.31,0,230.83,0Zm132.15,116.36l-54.83,257.28c-.42,1.65-2.1,2.65-3.76,2.23-.4-.1-.77-.28-1.1-.53l-86.41-61.42-48.24,45.73c-1.47,1.15-3.59.89-4.74-.57-.19-.24-.35-.51-.47-.8l-32.97-95.88-90.23-27.64c-1.6-.54-2.46-2.28-1.92-3.88.31-.9,1.02-1.61,1.92-1.92,166.24-61.08,291.87-106.46,318.59-116.02,1.53-.67,3.31.03,3.98,1.56.25.58.32,1.23.18,1.86Z"/></g></svg>