<?xml version="1.0" encoding="UTF-8"?><svg id="a" xmlns="http://www.w3.org/2000/svg" viewBox="0 0 253.76 74.86"><defs><style>.b{fill:#fff;}</style></defs><path class="b" d="m31.4,10.78c-6.92,0-12.56,5.63-12.56,12.56s5.64,12.55,12.56,12.55,12.55-5.63,12.55-12.55-5.63-12.56-12.55-12.56Zm0,22.86c-5.68,0-10.31-4.62-10.31-10.3s4.63-10.31,10.31-10.31,10.3,4.63,10.3,10.31-4.62,10.3-10.3,10.3Z"/><path class="b" d="m31.99,15.79c-4.59,0-8.32,3.73-8.32,8.32s3.73,8.33,8.32,8.33,8.33-3.74,8.33-8.33-3.74-8.32-8.33-8.32Zm0,14.4c-3.35,0-6.07-2.73-6.07-6.08s2.72-6.07,6.07-6.07,6.08,2.72,6.08,6.07-2.73,6.08-6.08,6.08Z"/><path class="b" d="m60.15,19.48c-1.52,0-2.76,1.24-2.76,2.76s1.24,2.76,2.76,2.76,2.76-1.24,2.76-2.76-1.24-2.76-2.76-2.76Zm0,2.25c.28,0,.51.23.51.51s-.23.51-.51.51-.51-.23-.51-.51.23-.51.51-.51Z"/><path class="b" d="m93.57,62.34c-.02-.33-.29-7.47-3.92-17.16-2.9-7.73-7-10.89-8.83-11.97.02-7.69-.49-21.07-1.06-24.98-.37-2.56-.87-4.56-1.5-5.95-.49-1.1-1.2-1.8-2.12-2.11-1.03-.33-2.13-.17-3.04.45-.72.52-1.31.98-1.77,1.39-1.12,1.01-3.28,3.1-4.32,4.11l-.07.07c-1.8-.75-5.06-2.02-8.2-2.76-4.48-1.07-10.25-1.31-11.92-1.31s-7.43.24-11.93,1.31c-3.12.73-6.38,2.01-8.19,2.76l-.07-.07c-1.04-1.01-3.2-3.1-4.32-4.11-.49-.44-1.09-.91-1.78-1.39-.9-.62-2.01-.78-3.02-.44-.94.3-1.68,1.03-2.14,2.1-.58,1.39-1.17,3.72-1.49,5.95-.56,3.77-1,16.41-1.01,24.91-1.85,1.04-6,4.14-8.95,12.04C.3,54.83.01,62.03,0,62.32c-.02.37,0,1.61,1,2.08.74.35,1.59.1,2.52-.73.97-.86,2.29-2.19,3.37-3.3.07.98.23,1.8.5,2.59.22.63.8,2.31,2.55,2.53h.17c1.41,0,2.96-1.54,3.65-3.04.23-.5.51-1.21.74-1.83.22.59.51,1.2.93,1.77.75,1.04,1.75,2.05,3.44,1.72.68-.14,1.22-.48,1.61-1.01,2.44,2.8,5.51,5.2,9.12,7.16,8.12,4.37,15.52,4.59,16.92,4.59h.27s.13.01.29.01c1.56,0,8.88-.25,16.96-4.6,1.03-.56,1.92-1.1,2.77-1.67,2.41-1.58,4.53-3.41,6.3-5.45.4.52.92.84,1.57.97,1.71.33,2.7-.68,3.44-1.72.43-.57.72-1.19.94-1.78.25.65.52,1.34.74,1.84.69,1.5,2.24,3.04,3.65,3.04.08,0,.17,0,.21,0,1.7-.2,2.29-1.86,2.52-2.52.26-.79.42-1.61.49-2.59.92.95,2.32,2.38,3.39,3.32.35.3,1.41,1.23,2.5.71,1-.47,1.02-1.7,1.01-2.06Zm-6.68-4.99c-.38-.48-.97-.66-1.48-.48-.99.34-.97,1.54-.96,2.05.02,1.43-.1,2.42-.41,3.31-.15.45-.38.99-.6,1.02-.18-.04-1.11-.67-1.6-1.73-.42-.95-1.17-3.03-1.41-3.74-.11-.47-.6-1.22-1.45-1.25-.7.03-1.2.48-1.46,1.3-.05.18-.1.37-.15.57l-.05.18c-.21.81-.45,1.73-1.01,2.49-.67.92-.89.88-1.2.82-.12-.02-.37-.06-.58-1.01v-.11c-.19-.98-.26-2.52-.21-4.69.08-4.62.39-10.47,2.02-14.71,1.08-2.8,2.7-5.06,3.52-6.11,1.64,1.01,5.12,3.86,7.69,10.7,2.87,7.68,3.57,13.82,3.72,15.79-.96-.87-2.36-2.28-4.19-4.2-.08-.09-.14-.15-.19-.2Zm-67.82,3.24l-.03.12c-.2,1.12-.46,1.16-.61,1.18-.28.07-.5.12-1.19-.83-.55-.75-.79-1.67-1-2.49l-.06-.23c-.05-.18-.09-.35-.14-.51-.35-1.13-1.06-1.3-1.45-1.3-.78,0-1.27.68-1.43,1.15-.03.07-.04.14-.05.19-.6,1.68-1.1,3-1.39,3.64-.48,1.05-1.38,1.71-1.54,1.75-.22-.03-.44-.38-.67-1.04-.3-.88-.42-1.87-.4-3.29.01-.52.03-1.72-.94-2.05-.17-.07-.32-.08-.43-.08-.42,0-.8.2-1.05.52-.68.72-2.9,3.07-4.4,4.43.16-1.97.86-8.12,3.73-15.79,2.61-6.97,6.26-9.81,7.68-10.69.82,1.02,2.43,3.24,3.52,6.09,1.62,4.25,1.94,10.1,2.02,14.72.05,1.97-.01,3.48-.17,4.51Zm46.09,6.4c-.73.47-1.45.89-2.2,1.29-7.98,4.3-15.34,4.34-16.17,4.32-.82.01-8.12-.01-16.11-4.32-.84-.46-1.56-.88-2.2-1.3-.52-2.35-2.23-12.54,5.17-18.45,5.07-4.06,11.36-4.41,13.17-4.41h.15c4.75-.1,9.37,1.49,13.02,4.42,7.43,5.92,5.68,16.12,5.17,18.45Zm7.38-18.8c-.31,2.7-.42,5.42-.47,7.83-.05,1.97,0,3.49.16,4.66-1.26,1.61-2.77,3.11-4.5,4.47.51-4.27.52-12.9-6.34-18.36-4.03-3.25-9.18-4.99-14.45-4.92h-.15c-2.54,0-9.04.5-14.54,4.91-6.87,5.46-6.86,14.1-6.34,18.37-1.74-1.36-3.27-2.89-4.57-4.55.15-1.18.2-2.72.15-4.58-.1-4.81-.43-10.92-2.17-15.46-1.36-3.55-3.46-6.23-4.21-7.12.01-8.27.45-21.15.99-24.89.29-1.96.82-4.08,1.39-5.51.14-.36.4-.62.72-.73.34-.11.72-.06,1.02.16.7.49,1.22.9,1.58,1.22,1.44,1.29,4.84,4.61,4.87,4.64.33.31.82.4,1.25.21.77-.33,4.8-2.05,8.48-2.93,4.27-1.01,9.81-1.24,11.41-1.24s7.14.23,11.4,1.24c3.68.87,7.71,2.6,8.51,2.94.42.18.9.1,1.23-.22.03-.03,3.43-3.35,4.87-4.64.37-.33.85-.71,1.58-1.22.3-.22.66-.27,1.02-.15.31.1.55.35.73.74.54,1.17,1.04,3.18,1.38,5.49.55,3.83,1.05,17.12,1.03,24.74-.55.64-2.87,3.47-4.33,7.27-.87,2.27-1.39,4.93-1.7,7.63Z"/><path class="b" d="m62.24,10.78c-6.92,0-12.55,5.63-12.55,12.56s5.63,12.55,12.55,12.55,12.55-5.63,12.55-12.55-5.63-12.56-12.55-12.56Zm0,22.86c-5.68,0-10.3-4.62-10.3-10.3s4.62-10.31,10.3-10.31,10.3,4.63,10.3,10.31-4.62,10.3-10.3,10.3Z"/><path class="b" d="m61.41,15.79c-4.59,0-8.33,3.73-8.33,8.32s3.74,8.33,8.33,8.33,8.33-3.74,8.33-8.33-3.74-8.32-8.33-8.32Zm0,14.4c-3.35,0-6.08-2.73-6.08-6.08s2.73-6.07,6.08-6.07,6.08,2.72,6.08,6.07-2.73,6.08-6.08,6.08Z"/><path class="b" d="m31.48,19.48c-1.52,0-2.75,1.24-2.75,2.76s1.23,2.76,2.75,2.76,2.76-1.24,2.76-2.76-1.23-2.76-2.76-2.76Zm0,2.25c.28,0,.51.23.51.51s-.23.51-.51.51-.5-.23-.5-.51.22-.51.5-.51Z"/><path class="b" d="m63.11,56.72c-.74,1.96-2.63,3.28-4.69,3.28h-.11c-1.96-.05-3.72-1.26-4.49-3.08-.24-.57.02-1.24.59-1.48s1.24.03,1.48.6c.43,1.01,1.4,1.68,2.47,1.7,1.18.07,2.21-.67,2.64-1.81.22-.58.87-.88,1.45-.66.58.22.88.87.66,1.45Z"/><path class="b" d="m39.84,56.44c-.74,1.96-2.63,3.28-4.69,3.28h-.11c-1.96-.05-3.72-1.26-4.49-3.08-.24-.58.02-1.24.59-1.48.28-.12.59-.12.87-.01.27.12.49.33.61.61.43,1.01,1.4,1.68,2.47,1.7,1.15.04,2.21-.68,2.64-1.81.22-.58.87-.87,1.45-.66.58.22.88.87.66,1.45Z"/><path class="b" d="m51.47,56.44c-.74,1.96-2.62,3.28-4.68,3.28h-.11c-1.96-.05-3.72-1.26-4.5-3.08-.24-.58.03-1.24.6-1.48.28-.12.58-.12.86-.01.28.12.5.33.61.61.43,1.01,1.4,1.68,2.47,1.7,1.14.07,2.21-.67,2.65-1.81.22-.58.87-.87,1.45-.66.58.22.87.87.65,1.45Z"/><path class="b" d="m45.62,64.77c-.74,1.96-2.63,3.28-4.69,3.28h-.11c-1.96-.05-3.72-1.26-4.49-3.08-.25-.57.02-1.24.59-1.48.28-.12.59-.12.86,0,.28.12.5.33.62.61.43,1.01,1.4,1.68,2.47,1.71,1.17.05,2.21-.67,2.64-1.82.22-.58.87-.87,1.45-.66.58.22.87.87.66,1.45Z"/><path class="b" d="m57.25,64.77c-.74,1.96-2.62,3.28-4.69,3.28h-.11c-1.95-.05-3.72-1.26-4.49-3.08-.24-.57.03-1.24.6-1.48.27-.12.58-.12.86,0,.28.12.5.33.61.61.43,1.01,1.4,1.68,2.47,1.71,1.17.05,2.22-.68,2.65-1.82.21-.58.86-.87,1.44-.66.59.22.88.87.66,1.45Z"/><path class="b" d="m50.19,30.5c-1.07-.77-2.26-1.17-3.45-1.17-1.12,0-2.24.35-3.25,1-.43.28-.61.81-.46,1.29l2.65,8.26c.15.46.58.78,1.07.78s.91-.3,1.07-.76l2.78-8.12c.16-.48,0-.99-.41-1.28Zm-3.48,1.08c.48-.04.99.11,1.47.33l-1.39,4.05-1.33-4.13c.42-.17.84-.25,1.25-.25Z"/><path class="b" d="m150.93,22.2v.02c-.09.36-.38.62-.74.67-.45.07-1.03.19-1.75.36-1.09.26-1.87.53-2.36.81-.75.44-1.37,1.27-1.85,2.51s-.95,2.81-1.41,4.74l-6.13,26.48c-.13.54-.61.93-1.16.93h-.65c-.46,0-.88-.26-1.08-.67l-14.01-28.91c-.3-.63-1.23-.52-1.38.16l-4.23,18.3c-.21.91-.39,1.83-.53,2.76-.14.93-.21,1.68-.21,2.26,0,.61.06,1.11.18,1.48.12.38.29.69.5.93.3.37,1.04.72,2.23,1.05.59.17,1.09.3,1.48.39.48.11.78.58.67,1.06l-.03.14c-.09.41-.45.69-.87.69h-13.45c-.57,0-.99-.53-.87-1.09v-.04c.09-.35.37-.62.72-.68.52-.09,1.18-.23,1.97-.44,1.12-.29,1.87-.56,2.23-.83.7-.47,1.29-1.24,1.79-2.3.49-1.06,1-2.76,1.53-5.11l4.2-18.06c.12-.58.21-1.07.26-1.48s.08-.79.08-1.14c0-.42-.05-.82-.14-1.19-.1-.38-.32-.77-.67-1.19-.61-.7-1.36-1.19-2.25-1.46-.52-.16-1-.28-1.45-.37-.5-.1-.82-.59-.7-1.08l.03-.11c.1-.4.45-.68.87-.68h9.25c.46,0,.87.26,1.07.67l12.9,26.55c.3.63,1.23.52,1.38-.16l3.82-16.51c.21-.93.39-1.83.53-2.72.14-.88.21-1.64.21-2.27,0-.58-.06-1.06-.17-1.46-.11-.39-.28-.69-.51-.88-.42-.37-1.13-.69-2.13-.96-.58-.16-1.1-.28-1.56-.38-.49-.1-.8-.59-.68-1.08l.03-.13c.1-.4.45-.68.87-.68h13.31c.58,0,1,.54.87,1.1Z"/><path class="b" d="m161.39,54.89h-.18c-.38.32-.84.71-1.38,1.2-.53.48-1.16.94-1.88,1.38-.68.44-1.42.82-2.23,1.14-.8.32-1.68.49-2.62.49-2.53,0-4.52-.91-5.96-2.73s-2.16-4.31-2.16-7.46c0-2.17.4-4.28,1.21-6.33.8-2.05,1.92-3.89,3.33-5.52,1.35-1.56,2.95-2.82,4.8-3.77,1.85-.96,3.76-1.43,5.72-1.43,1.24,0,2.43.17,3.55.5.9.27,1.65.56,2.25.88.27.15.59.2.89.13l4.35-1.11.32.39-4,16.95c-.14.54-.29,1.21-.43,1.98s-.22,1.35-.22,1.72c0,1,.21,1.67.63,2.02.42.35,1.13.53,2.13.53.51,0,1.21-.13,1.42-.16.68-.11,1.03-.26,1.28-.06.19.15.25.44.22.66-.07.46-.57.73-1.06.97-1.73.85-2.94,1.13-2.94,1.13-1.33.31-1.99.42-2.81.42-1.26,0-2.26-.37-3-1.1-.74-.74-1.14-1.67-1.21-2.81Zm3.75-16.45c.02-.1.04-.21.04-.32-.01-.52-.07-1.02-.18-1.49-.12-.53-.38-1.02-.76-1.47-.35-.44-.83-.79-1.44-1.05-.61-.26-1.38-.39-2.31-.39-1.28,0-2.52.42-3.73,1.26-1.21.84-2.29,1.97-3.26,3.39-.91,1.33-1.66,2.94-2.23,4.84-.58,1.89-.87,3.81-.87,5.76,0,1.07.06,2.02.18,2.84s.36,1.58.71,2.26c.33.67.81,1.18,1.44,1.55.63.37,1.42.55,2.38.55s2-.28,3.08-.83c1.01-.52,2.14-1.4,3.39-2.66.16-.16.27-.36.32-.58l3.25-13.65Z"/><path class="b" d="m179.57,58.91c-1.66,0-2.88-.34-3.65-1.01s-1.16-1.64-1.16-2.9c0-.4.03-.78.08-1.14.05-.36.12-.77.21-1.22l4.09-17.54h-3.19c-.77,0-1.34-.72-1.16-1.46h0c.13-.54.61-.93,1.16-.93h3.84l1.61-6.77c.13-.54.61-.92,1.16-.92h2.28c.77,0,1.34.71,1.16,1.46l-1.44,6.23h5.81c.77,0,1.34.71,1.16,1.46h0c-.12.54-.61.93-1.16.93h-6.3l-3.39,14.47c-.16.67-.29,1.31-.39,1.93-.1.62-.16,1.15-.16,1.59,0,.96.24,1.67.72,2.11.48.45,1.35.67,2.61.67.46,0,1.09-.06,1.92-.17.21-.03.4-.06.58-.09.62-.11,1.15.47,1,1.08v.03c-.07.29-.29.53-.57.64-1.06.4-2.06.75-3.01,1.05-1.08.34-2.36.51-3.83.51Z"/><path class="b" d="m212.06,57.27v-.02c.09-.37.39-.64.77-.69s.82-.1,1.28-.16c.73-.1,1.29-.21,1.69-.33.54-.17.95-.36,1.22-.55.27-.19.41-.49.41-.89,0-.14-.1-1-.31-2.57-.18-1.37-.43-3.23-.74-5.57-.08-.6-.59-1.05-1.2-1.05h-11.36c-.41,0-.8.21-1.01.56-.47.77-.97,1.64-1.49,2.6-.65,1.2-1.15,2.11-1.5,2.74-.31.56-.62,1.18-.91,1.87-.29.69-.43,1.15-.43,1.38,0,.58.46,1.04,1.39,1.39.7.26,1.54.45,2.51.57.52.06.87.57.76,1.08v.05c-.1.41-.46.69-.88.69h-12.48c-.57,0-.99-.53-.87-1.09v-.04c.09-.36.37-.62.74-.68.34-.05.74-.13,1.18-.23.73-.17,1.33-.39,1.83-.67.61-.35,1.2-.78,1.77-1.3.57-.52,1.18-1.29,1.82-2.32,3.03-4.8,6.35-10.13,9.96-16.02,3.46-5.64,6.53-10.6,9.2-14.88.22-.35.6-.56,1.01-.56h.41c.59,0,1.09.43,1.18,1.01l4.81,31.25c.1.65.28,1.19.53,1.64.24.45.61.86,1.1,1.25.35.25.82.45,1.42.62.23.06.44.12.65.16.5.1.83.57.71,1.07l-.02.09c-.09.41-.45.69-.87.69h-13.41c-.57,0-.99-.53-.87-1.09Zm3.67-14.71l-1.97-12.25c-.09-.56-.82-.7-1.12-.22l-7.52,12.25c-.24.39.04.89.5.89h9.54c.36,0,.63-.32.58-.68Z"/><path class="b" d="m253.74,22.19h0c-.09.37-.39.65-.78.69-.43.04-.93.1-1.5.2-.88.14-1.52.27-1.94.39-.74.23-1.26.58-1.58,1.05-.32.47-.54.99-.68,1.56l-6.32,27.22c-.04.12-.06.26-.08.41-.02.16-.03.3-.03.42,0,.4.09.74.26,1.02.18.28.49.52.95.74.26.12.84.27,1.73.43.39.07.74.13,1.05.18.51.08.85.57.73,1.08l-.02.08c-.09.41-.45.69-.87.69h-14.98c-.57,0-.99-.53-.87-1.09h0c.09-.38.4-.66.79-.69s.89-.07,1.45-.11c.91-.07,1.56-.17,1.94-.32.68-.24,1.2-.58,1.55-1.01.35-.43.59-.95.71-1.56l6.3-27.25c.04-.16.06-.31.08-.47.02-.16.03-.31.03-.47,0-.35-.08-.66-.22-.92-.15-.26-.46-.5-.93-.71-.47-.21-1.12-.41-1.93-.59-.33-.07-.62-.14-.88-.19-.5-.1-.82-.58-.71-1.07l.02-.11c.09-.41.45-.69.87-.69h14.97c.57,0,.99.53.87,1.09Z"/></svg>